HIERARCHY
ROOT hip
{
  OFFSET 0 0 0
  CHANNELS 6 Xposition Yposition Zposition Zrotation Yrotation Xrotation
  JOINT abdomen
  {
    OFFSET 0 20.6881 -0.73152
    CHANNELS 3 Zrotation Xrotation Yrotation
    JOINT chest
    {
      OFFSET 0 11.7043 -0.48768
      CHANNELS 3 Zrotation Xrotation Yrotation
      JOINT neck
      {
        OFFSET 0 22.1894 -2.19456
        CHANNELS 3 Zrotation Xrotation Yrotation
        JOINT head
        {
          OFFSET -0.24384 7.07133 1.2192
          CHANNELS 3 Zrotation Xrotation Yrotation
          JOINT leftEye
          {
            OFFSET 4.14528 8.04674 8.04672
            CHANNELS 3 Zrotation Xrotation Yrotation
            End Site
            {
              OFFSET 1 0 0
            }
          }
          JOINT rightEye
          {
            OFFSET -3.6576 8.04674 8.04672
            CHANNELS 3 Zrotation Xrotation Yrotation
            End Site
            {
              OFFSET 1 0 0
            }
          }
        }
      }
      JOINT rCollar
      {
        OFFSET -2.68224 19.2634 -4.8768
        CHANNELS 3 Zrotation Xrotation Yrotation
        JOINT rShldr
        {
          OFFSET -8.77824 -1.95073 1.46304
          CHANNELS 3 Zrotation Xrotation Yrotation
          JOINT rForeArm
          {
            OFFSET -28.1742 -1.7115 0.48768
            CHANNELS 3 Zrotation Xrotation Yrotation
            JOINT rHand
            {
              OFFSET -22.5879 0.773209 7.07136
              CHANNELS 3 Zrotation Xrotation Yrotation
              JOINT rThumb1
              {
                OFFSET -1.2192 -0.487915 3.41376
                CHANNELS 3 Zrotation Xrotation Yrotation
                JOINT rThumb2
                {
                  OFFSET -3.37035 -0.52449 3.41376
                  CHANNELS 3 Zrotation Xrotation Yrotation
                  End Site
                  {
                    OFFSET -1.78271 -1.18214 1.43049
                  }
                }
              }
              JOINT rIndex1
              {
                OFFSET -7.75947 0.938293 5.60832
                CHANNELS 3 Zrotation Xrotation Yrotation
                JOINT rIndex2
                {
                  OFFSET -2.54057 -0.884171 1.56538
                  CHANNELS 3 Zrotation Xrotation Yrotation
                  End Site
                  {
                    OFFSET -1.62519 -0.234802 1.16502
                  }
                }
              }
              JOINT rMid1
              {
                OFFSET -8.24714 1.18213 3.41376
                CHANNELS 3 Zrotation Xrotation Yrotation
                JOINT rMid2
                {
                  OFFSET -3.10165 -0.590103 1.0647
                  CHANNELS 3 Zrotation Xrotation Yrotation
                  End Site
                  {
                    OFFSET -2.48547 -0.328903 0.83742
                  }
                }
              }
              JOINT rRing1
              {
                OFFSET -8.82822 0.546677 1.51678
                CHANNELS 3 Zrotation Xrotation Yrotation
                JOINT rRing2
                {
                  OFFSET -2.60934 -0.819778 -0.0198488
                  CHANNELS 3 Zrotation Xrotation Yrotation
                  End Site
                  {
                    OFFSET -2.33842 -0.294052 0.168128
                  }
                }
              }
              JOINT rPinky1
              {
                OFFSET -8.27202 -0.0477905 -0.4584
                CHANNELS 3 Zrotation Xrotation Yrotation
                JOINT rPinky2
                {
                  OFFSET -1.82734 -0.647385 -0.700984
                  CHANNELS 3 Zrotation Xrotation Yrotation
                  End Site
                  {
                    OFFSET -1.69225 -0.51767 -0.607171
                  }
                }
              }
            }
          }
        }
      }
      JOINT lCollar
      {
        OFFSET 2.68224 19.2634 -4.8768
        CHANNELS 3 Zrotation Xrotation Yrotation
        JOINT lShldr
        {
          OFFSET 8.77824 -1.95073 1.46304
          CHANNELS 3 Zrotation Xrotation Yrotation
          JOINT lForeArm
          {
            OFFSET 28.1742 -1.7115 0.48768
            CHANNELS 3 Zrotation Xrotation Yrotation
            JOINT lHand
            {
              OFFSET 22.5879 0.773209 7.07136
              CHANNELS 3 Zrotation Xrotation Yrotation
              JOINT lThumb1
              {
                OFFSET 1.2192 -0.487915 3.41376
                CHANNELS 3 Zrotation Xrotation Yrotation
                JOINT lThumb2
                {
                  OFFSET 3.37035 -0.52449 3.41376
                  CHANNELS 3 Zrotation Xrotation Yrotation
                  End Site
                  {
                    OFFSET 1.78271 -1.18214 1.43049
                  }
                }
              }
              JOINT lIndex1
              {
                OFFSET 7.75947 0.938293 5.60832
                CHANNELS 3 Zrotation Xrotation Yrotation
                JOINT lIndex2
                {
                  OFFSET 2.54057 -0.884171 1.56538
                  CHANNELS 3 Zrotation Xrotation Yrotation
                  End Site
                  {
                    OFFSET 1.62519 -0.234802 1.16502
                  }
                }
              }
              JOINT lMid1
              {
                OFFSET 8.24714 1.18213 3.41376
                CHANNELS 3 Zrotation Xrotation Yrotation
                JOINT lMid2
                {
                  OFFSET 3.10165 -0.590103 1.0647
                  CHANNELS 3 Zrotation Xrotation Yrotation
                  End Site
                  {
                    OFFSET 2.48547 -0.328903 0.83742
                  }
                }
              }
              JOINT lRing1
              {
                OFFSET 8.82822 0.546677 1.51678
                CHANNELS 3 Zrotation Xrotation Yrotation
                JOINT lRing2
                {
                  OFFSET 2.60934 -0.819778 -0.0198488
                  CHANNELS 3 Zrotation Xrotation Yrotation
                  End Site
                  {
                    OFFSET 2.33842 -0.294052 0.168128
                  }
                }
              }
              JOINT lPinky1
              {
                OFFSET 8.27202 -0.0477905 -0.4584
                CHANNELS 3 Zrotation Xrotation Yrotation
                JOINT lPinky2
                {
                  OFFSET 1.82734 -0.647385 -0.700984
                  CHANNELS 3 Zrotation Xrotation Yrotation
                  End Site
                  {
                    OFFSET 1.69225 -0.51767 -0.607171
                  }
                }
              }
            }
          }
        }
      }
    }
  }
  JOINT rButtock
  {
    OFFSET -8.77824 4.35084 1.2192
    CHANNELS 3 Zrotation Xrotation Yrotation
    JOINT rThigh
    {
      OFFSET 0 -1.70687 -2.19456
      CHANNELS 3 Zrotation Xrotation Yrotation
      JOINT rShin
      {
        OFFSET 0 -36.8199 0.73152
        CHANNELS 3 Zrotation Xrotation Yrotation
        JOINT rFoot
        {
          OFFSET 0.73152 -45.1104 -5.12064
          CHANNELS 3 Zrotation Xrotation Yrotation
          End Site
          {
            OFFSET -1.1221 -3.69964 12.103
          }
        }
      }
    }
  }
  JOINT lButtock
  {
    OFFSET 8.77824 4.35084 1.2192
    CHANNELS 3 Zrotation Xrotation Yrotation
    JOINT lThigh
    {
      OFFSET 0 -1.70687 -2.19456
      CHANNELS 3 Zrotation Xrotation Yrotation
      JOINT lShin
      {
        OFFSET 0 -36.8199 0.73152
        CHANNELS 3 Zrotation Xrotation Yrotation
        JOINT lFoot
        {
          OFFSET -0.73152 -45.1104 -5.12064
          CHANNELS 3 Zrotation Xrotation Yrotation
          End Site
          {
            OFFSET 1.1221 -3.69964 12.103
          }
        }
      }
    }
  }
}
MOTION
Frames:	9
Frame Time:	0.00833333
-166.836 85.1237 24.9702 0.0 0.0 0.0 0.435986 -0.0238476 0.0128209 0.121282 -0.0396191 0.0210505 1.10111e-14 -7.95139e-16 -3.106e-17 3.30231e-14 3.18055e-15 -8.23093e-17 -0.0 0.0 0.0 -0.0 0.0 0.0 5.56476e-15 -1.2424e-17 1.98785e-16 1.18495e-13 -7.51655e-16 1.19271e-15 2.00191e-12 -6.17624e-13 -9.54166e-15 2.29151e-11 5.00962e-13 -1.90833e-14 5.40499e-11 -2.49811e-13 -6.04305e-14 9.33334e-11 -4.32555e-13 -1.00983e-13 5.40563e-11 -2.48481e-13 -6.99722e-14 7.73091 5.47488 0.417314 5.40487e-11 -2.50369e-13 -5.08889e-14 2.90554 0.965183 0.102902 5.40554e-11 -2.49475e-13 -5.80451e-14 10.2786 0.731801 0.0259123 5.40492e-11 -2.49276e-13 -5.40694e-14 2.22167 -0.733487 -0.20892 5.46815e-15 -1.20358e-17 -1.98785e-16 1.13758e-13 -5.59082e-16 -5.96354e-16 2.00405e-12 5.81843e-13 -3.49861e-14 2.29111e-11 -6.89509e-13 2.22639e-14 5.40492e-11 -2.32976e-13 -6.04305e-14 9.33425e-11 -3.97569e-13 -9.93923e-14 5.40432e-11 -2.30193e-13 -4.45278e-14 -7.73091 5.47488 -0.417314 5.40494e-11 -2.33075e-13 -6.04305e-14 -2.90554 0.965183 -0.102902 5.40427e-11 -2.32677e-13 -5.725e-14 -10.2786 0.731801 -0.0259123 5.40549e-11 -2.31783e-13 -6.67917e-14 -2.22167 -0.733487 0.20892 -2.03217e-16 0.0 -3.88251e-19 0.651016 -4.71105 -0.0694359 -0.000837811 2.99798 0.00387302 -0.325402 1.72329 0.0696631 2.03217e-16 0.0 3.88251e-19 0.0329888 -2.68019 0.0231631 0.00579623 -0.679878 0.0505529 0.296319 3.37026 -0.0967035
-160.587 84.6124 12.9738 -174.039 30.1443 -169.491 1.79615 0.657408 -3.70554 7.30767 -6.54032 0.846328 -1.92351 0.473124 -0.615864 -3.44063 10.0808 2.7093 -0.0 0.0 0.0 -0.0 0.0 0.0 7.83135e-14 -7.52074e-14 1.63996e-13 12.1453 22.2597 -2.10857 -6.35148 -3.49156 9.1747 0.0658245 -5.6964 -0.786356 3.43836e-10 -1.26281e-09 -7.92781e-10 6.11582e-10 -2.20035e-09 -1.37011e-09 3.43842e-10 -1.26281e-09 -7.9279e-10 7.73091 5.47488 0.417314 3.43835e-10 -1.26281e-09 -7.92773e-10 2.90554 0.965183 0.102902 3.43842e-10 -1.26281e-09 -7.92779e-10 10.2786 0.731801 0.0259123 3.43835e-10 -1.26281e-09 -7.92773e-10 2.22167 -0.733487 -0.20892 7.82144e-14 -7.52163e-14 1.63667e-13 -28.581 -2.76892 10.3342 5.56685 -2.87114 -8.29257 -0.000526836 0.520428 -0.0731315 -1.3227e-09 -8.0983e-10 5.80853e-10 -2.28903e-09 -1.39661e-09 1.01215e-09 -1.32271e-09 -8.09827e-10 5.8087e-10 -7.73091 5.47488 -0.417314 -1.3227e-09 -8.09828e-10 5.80857e-10 -2.90554 0.965183 -0.102902 -1.32271e-09 -8.09828e-10 5.80858e-10 -10.2786 0.731801 -0.0259123 -1.3227e-09 -8.09828e-10 5.80849e-10 -2.22167 -0.733487 0.20892 -2.03217e-16 0.0 -3.88251e-19 7.02579 -3.78486 3.84006 -0.0186859 4.77198 -0.0653861 0.231877 -1.33478 -1.7895 2.03217e-16 0.0 3.88251e-19 5.19481 -12.3148 -8.97371 0.0150024 2.35238 0.0514386 1.1126 7.49224 -1.38948
-160.051 84.4906 11.6508 -174.076 31.8341 -169.293 3.30274 1.38512 -7.66501 15.1374 -13.4124 1.75413 -3.93322 0.964252 -1.26691 -8.22348 20.6767 5.89032 -0.0 0.0 0.0 -0.0 0.0 0.0 1.59128e-13 -1.5654e-13 3.44242e-13 27.427 45.7051 -5.7104 -11.8712 -6.89004 18.9897 -0.0379071 -11.7184 -1.64442 6.65537e-10 -2.65176e-09 -1.66474e-09 1.18675e-09 -4.62048e-09 -2.87703e-09 6.65541e-10 -2.65176e-09 -1.66475e-09 7.73091 5.47488 0.417314 6.65536e-10 -2.65176e-09 -1.66474e-09 2.90554 0.965183 0.102902 6.65542e-10 -2.65176e-09 -1.66474e-09 10.2786 0.731801 0.0259123 6.65535e-10 -2.65176e-09 -1.66473e-09 2.22167 -0.733487 -0.20892 1.59025e-13 -1.56558e-13 3.43984e-13 -57.7592 -5.40531 21.3296 10.5766 -5.72171 -17.1534 0.000369695 1.05816 -0.148715 -2.84432e-09 -1.7125e-09 1.21464e-09 -4.92209e-09 -2.95342e-09 2.11662e-09 -2.84432e-09 -1.7125e-09 1.21466e-09 -7.73091 5.47488 -0.417314 -2.84431e-09 -1.7125e-09 1.21465e-09 -2.90554 0.965183 -0.102902 -2.84432e-09 -1.7125e-09 1.21465e-09 -10.2786 0.731801 -0.0259123 -2.84431e-09 -1.7125e-09 1.21464e-09 -2.22167 -0.733487 0.20892 -2.03217e-16 0.0 -3.88251e-19 13.6355 -2.84111 7.97065 -0.0337017 6.59258 -0.144241 0.599548 -4.56692 -3.83319 2.03217e-16 0.0 3.88251e-19 7.23064 -21.6589 -19.5154 0.024943 5.48682 0.0558435 2.18543 11.978 -2.77232
-159.361 84.3549 10.3883 -173.533 33.3706 -168.76 4.78004 1.98589 -11.1483 22.2714 -19.5248 2.63179 -5.74002 1.41872 -1.8481 -13.5444 29.9505 9.24576 -0.0 0.0 0.0 -0.0 0.0 0.0 2.23811e-13 -2.25597e-13 4.91591e-13 47.4369 66.1318 -14.5999 -15.806 -9.40203 27.879 -0.289865 -17.076 -2.45574 9.23409e-10 -3.78794e-09 -2.37822e-09 1.64808e-09 -6.6002e-09 -4.11014e-09 9.23413e-10 -3.78793e-09 -2.37823e-09 7.73091 5.47488 0.417314 9.23408e-10 -3.78793e-09 -2.37822e-09 2.90554 0.965183 0.102902 9.23415e-10 -3.78793e-09 -2.37822e-09 10.2786 0.731801 0.0259123 9.23407e-10 -3.78793e-09 -2.37821e-09 2.22167 -0.733487 -0.20892 2.23707e-13 -2.25625e-13 4.91397e-13 -82.8893 -7.2331 31.2423 14.2747 -7.89318 -25.1003 0.00240635 1.56128 -0.219467 -4.07621e-09 -2.42902e-09 1.74268e-09 -7.05377e-09 -4.18905e-09 3.03666e-09 -4.07621e-09 -2.42902e-09 1.7427e-09 -7.73091 5.47488 -0.417314 -4.0762e-09 -2.42902e-09 1.74269e-09 -2.90554 0.965183 -0.102902 -4.07622e-09 -2.42902e-09 1.74269e-09 -10.2786 0.731801 -0.0259123 -4.07621e-09 -2.42902e-09 1.74268e-09 -2.22167 -0.733487 0.20892 -2.03217e-16 0.0 -3.88251e-19 19.3973 -1.91773 11.64 -0.0413875 8.31995 -0.205375 0.748174 -7.41829 -5.55292 2.03217e-16 0.0 3.88251e-19 5.79409 -28.3759 -30.2877 0.0330931 8.41691 0.053665 3.32246 15.7046 -4.09279
-158.628 84.2012 9.12892 -172.849 34.8776 -168.103 5.98573 2.30481 -13.4345 27.2397 -23.7538 3.30639 -7.06016 1.78212 -2.25419 -17.7622 36.2069 11.954 -0.0 0.0 0.0 -0.0 0.0 0.0 2.48167e-13 -2.63969e-13 5.56696e-13 81.2629 78.6423 -40.2806 -18.041 -10.7308 34.1122 -0.560955 -20.7853 -3.05791 1.02171e-09 -4.29217e-09 -2.69549e-09 1.8248e-09 -7.47888e-09 -4.65874e-09 1.02172e-09 -4.29216e-09 -2.6955e-09 7.73091 5.47488 0.417314 1.02171e-09 -4.29216e-09 -2.69549e-09 2.90554 0.965183 0.102902 1.02172e-09 -4.29216e-09 -2.69549e-09 10.2786 0.731801 0.0259123 1.02171e-09 -4.29216e-09 -2.69548e-09 2.22167 -0.733487 -0.20892 2.48066e-13 -2.64005e-13 5.56547e-13 -99.8672 -8.07106 38.2169 16.4103 -9.07407 -30.5436 0.00480016 1.97785 -0.278081 -4.58379e-09 -2.68016e-09 2.00635e-09 -7.93204e-09 -4.62173e-09 3.49562e-09 -4.58379e-09 -2.68016e-09 2.00637e-09 -7.73091 5.47488 -0.417314 -4.58379e-09 -2.68015e-09 2.00636e-09 -2.90554 0.965183 -0.102902 -4.5838e-09 -2.68015e-09 2.00636e-09 -10.2786 0.731801 -0.0259123 -4.58379e-09 -2.68015e-09 2.00635e-09 -2.22167 -0.733487 0.20892 -2.03217e-16 0.0 -3.88251e-19 23.2781 -1.04865 14.1673 -0.0410694 9.8143 -0.220868 0.809294 -9.35603 -6.41047 2.03217e-16 0.0 3.88251e-19 2.99801 -31.6572 -38.4142 0.0388765 10.8361 0.0344681 4.18385 17.5623 -5.14176
-157.787 83.9264 7.6946 -172.507 36.3815 -167.661 6.82565 2.2306 -14.0078 28.9659 -25.3669 3.61741 -7.71979 2.03539 -2.40257 -18.9935 38.4583 12.855 -0.0 0.0 0.0 -0.0 0.0 0.0 2.16583e-13 -2.80361e-13 5.15606e-13 112.473 81.1768 -68.1645 -18.7842 -11.1066 36.4748 -0.689121 -22.2198 -3.30225 8.1635e-10 -3.93876e-09 -2.44515e-09 1.46417e-09 -6.86315e-09 -4.22807e-09 8.16352e-10 -3.93875e-09 -2.44516e-09 7.73091 5.47488 0.417314 8.16349e-10 -3.93875e-09 -2.44515e-09 2.90554 0.965183 0.102902 8.16353e-10 -3.93875e-09 -2.44515e-09 10.2786 0.731801 0.0259123 8.16346e-10 -3.93875e-09 -2.44514e-09 2.22167 -0.733487 -0.20892 2.16497e-13 -2.8041e-13 5.15477e-13 -106.179 -8.20666 41.0054 17.0359 -9.33862 -32.3606 0.0066503 2.24454 -0.315628 -4.03413e-09 -2.0726e-09 1.97752e-09 -6.98036e-09 -3.57126e-09 3.44351e-09 -4.03413e-09 -2.0726e-09 1.97753e-09 -7.73091 5.47488 -0.417314 -4.03412e-09 -2.07259e-09 1.97753e-09 -2.90554 0.965183 -0.102902 -4.03414e-09 -2.07259e-09 1.97752e-09 -10.2786 0.731801 -0.0259123 -4.03413e-09 -2.0726e-09 1.97752e-09 -2.22167 -0.733487 0.20892 -2.03217e-16 0.0 -3.88251e-19 24.7327 -0.204268 15.125 -0.0380486 10.912 -0.171172 0.955646 -10.1524 -5.94772 2.03217e-16 0.0 3.88251e-19 1.53277 -32.4117 -41.2211 0.0410306 12.4681 -0.0174867 4.36452 16.6194 -5.54101
-156.973 83.7013 6.1478 -172.169 37.7595 -167.33 7.39286 1.87975 -13.3592 28.3197 -25.1148 3.63717 -7.90985 2.20933 -2.36733 -17.7166 37.9168 12.1825 -0.0 0.0 0.0 -0.0 0.0 0.0 1.4502e-13 -2.80055e-13 3.98234e-13 107.365 80.3292 -63.3569 -18.6331 -10.9913 36.0421 -0.672417 -22.0312 -3.26995 3.97903e-10 -2.97146e-09 -1.79e-09 7.26347e-10 -5.17774e-09 -3.0989e-09 3.97905e-10 -2.97146e-09 -1.79e-09 7.73091 5.47488 0.417314 3.97903e-10 -2.97146e-09 -1.79e-09 2.90554 0.965183 0.102902 3.97904e-10 -2.97146e-09 -1.78999e-09 10.2786 0.731801 0.0259123 3.97897e-10 -2.97146e-09 -1.78998e-09 2.22167 -0.733487 -0.20892 1.44955e-13 -2.80119e-13 3.9811e-13 -105.002 -8.02674 40.7906 16.7056 -9.06523 -31.5676 0.0077793 2.40552 -0.338305 -2.73135e-09 -8.61555e-10 1.73606e-09 -4.72515e-09 -1.47848e-09 3.01996e-09 -2.73135e-09 -8.61554e-10 1.73608e-09 -7.73091 5.47488 -0.417314 -2.73134e-09 -8.61553e-10 1.73607e-09 -2.90554 0.965183 -0.102902 -2.73136e-09 -8.61551e-10 1.73607e-09 -10.2786 0.731801 -0.0259123 -2.73135e-09 -8.61553e-10 1.73606e-09 -2.22167 -0.733487 0.20892 -2.03217e-16 0.0 -3.88251e-19 24.4916 0.629623 14.9621 -0.0355959 11.7296 -0.0743843 1.19111 -10.1274 -4.53734 2.03217e-16 0.0 3.88251e-19 1.58441 -31.9507 -39.9533 0.0421325 13.5411 -0.0928274 4.03194 13.6911 -5.48522
-156.147 83.543 4.54819 -171.636 38.9747 -166.978 7.71059 1.44941 -12.2758 26.7161 -24.1027 3.51086 -7.89427 2.32448 -2.27828 -15.5108 36.2728 10.889 -0.0 0.0 0.0 -0.0 0.0 0.0 5.6631e-14 -2.39499e-13 2.3604e-13 90.4026 77.9544 -48.1718 -18.1077 -10.6627 34.4726 -0.595876 -21.1555 -3.12109 2.26577e-11 -1.71527e-09 -9.9358e-10 5.98624e-11 -2.98921e-09 -1.72389e-09 2.2659e-11 -1.71527e-09 -9.93584e-10 7.73091 5.47488 0.417314 2.26575e-11 -1.71527e-09 -9.93577e-10 2.90554 0.965183 0.102902 2.26558e-11 -1.71527e-09 -9.93572e-10 10.2786 0.731801 0.0259123 2.26498e-11 -1.71527e-09 -9.93561e-10 2.22167 -0.733487 -0.20892 5.65857e-14 -2.39573e-13 2.35907e-13 -100.792 -7.72018 39.3397 15.9745 -8.56275 -29.7498 0.008606 2.57023 -0.361494 -1.19647e-09 2.59443e-10 1.28537e-09 -2.06879e-09 4.56754e-10 2.2327e-09 -1.19647e-09 2.59443e-10 1.28538e-09 -7.73091 5.47488 -0.417314 -1.19646e-09 2.59443e-10 1.28537e-09 -2.90554 0.965183 -0.102902 -1.19647e-09 2.59444e-10 1.28537e-09 -10.2786 0.731801 -0.0259123 -1.19646e-09 2.59443e-10 1.28536e-09 -2.22167 -0.733487 0.20892 -2.03217e-16 0.0 -3.88251e-19 23.4399 1.4009 14.3104 -0.031122 12.548 0.0412344 1.41594 -9.5837 -2.87305 2.03217e-16 0.0 3.88251e-19 2.05311 -30.9104 -37.066 0.0471951 14.5058 -0.164327 3.61789 10.2976 -5.57498
-155.333 83.3538 2.88954 -171.122 40.1006 -166.634 7.77726 1.1437 -11.5431 25.5776 -23.435 3.38683 -7.93534 2.40132 -2.26529 -13.8784 35.238 9.8767 -0.0 0.0 0.0 -0.0 0.0 0.0 -2.54265e-14 -1.35137e-13 6.04802e-14 82.9529 75.8076 -41.7618 -17.7327 -10.4023 33.4236 -0.546403 -20.5287 -3.01666 -5.31029e-11 -4.95174e-10 -3.19455e-10 -8.67373e-11 -8.64106e-10 -5.55689e-10 -5.31017e-11 -4.95177e-10 -3.19458e-10 7.73091 5.47488 0.417314 -5.31029e-11 -4.95177e-10 -3.19452e-10 2.90554 0.965183 0.102902 -5.31055e-11 -4.95176e-10 -3.19446e-10 10.2786 0.731801 0.0259123 -5.31115e-11 -4.95171e-10 -3.19436e-10 2.22167 -0.733487 -0.20892 -2.54637e-14 -1.3521e-13 6.03311e-14 -98.0134 -7.47659 38.4159 15.433 -8.17086 -28.4845 0.00995885 2.84809 -0.400606 4.94958e-11 5.9686e-10 6.28812e-10 8.63731e-11 1.03461e-09 1.0895e-09 4.9495e-11 5.96859e-10 6.28818e-10 -7.73091 5.47488 -0.417314 4.95016e-11 5.96859e-10 6.28812e-10 -2.90554 0.965183 -0.102902 4.94868e-11 5.9686e-10 6.2881e-10 -10.2786 0.731801 -0.0259123 4.94972e-11 5.9686e-10 6.28802e-10 -2.22167 -0.733487 0.20892 -2.03217e-16 0.0 -3.88251e-19 22.4234 2.04701 13.8004 -0.0222342 13.6479 0.147474 1.55763 -8.83807 -1.64443 2.03217e-16 0.0 3.88251e-19 1.94713 -30.0445 -34.9591 0.0612174 15.8127 -0.204771 3.45096 7.96657 -6.36182
